#!OML:ASF X:\für Bonn\!DataBase\2005_08_10_Bjorn_Final\c3d\bjorn.ASF
:FULLY-SPECIFIED
:DEGREES
45
root 4.63352 24.054 20.55 5.20644 -3.06061 2.92549
lowerback -1.55687 0.741755 -0.529334
upperback 4.0991 1.04309 -0.686328
thorax 5.10873 0.511451 -0.350977
lowerneck 2.14668 -2.63225 -0.309281
upperneck 11.2233 -3.50531 -0.175875
head 3.22297 -1.7523 -0.0787534
rclavicle -1.80397e-014 7.35503e-015
rhumerus -28.37 -21.6613 -47.551
rradius 133.406
rwrist -210.091
rhand 2.5031e-012 -2.59851e-012
rfingers 7.12502
rthumb 25.5904 -28.3008
lclavicle -1.80397e-014 7.35503e-015
lhumerus -21.836 -19.3091 55.982
lradius 123.241
lwrist -2.40154
lhand -1.46624e-012 -2.05146e-012
lfingers 7.12502
lthumb 25.5904 28.3008
rfemur -17.6423 -12.0733 12.647
rtibia 40.028
rfoot 12.5889 7.64821
rtoes -12.1796
lfemur -19.104 10.6528 -19.048
ltibia 40.241
lfoot 18.6043 -4.31932
ltoes -11.1487
46
root 4.62036 24.0617 20.655 5.07664 -3.29105 2.98873
lowerback -0.893696 0.778353 -0.625232
upperback 4.22525 1.0895 -0.695836
thorax 4.861 0.531518 -0.313056
lowerneck 1.68137 -2.58234 -0.52939
upperneck 11.6741 -3.45349 0.0125846
head 3.47498 -1.72824 0.0092015
rclavicle -9.39258e-015 -1.45113e-014
rhumerus -27.3202 -19.9419 -49.808
rradius 132.011
rwrist -209.296
rhand 2.49037e-012 -2.52854e-012
rfingers 7.12502
rthumb 25.5904 -28.3008
lclavicle -9.39258e-015 -1.45113e-014
lhumerus -21.3585 -19.806 56.9188
lradius 121.812
lwrist -2.56166
lhand -1.73181e-012 -1.45987e-012
lfingers 7.12502
lthumb 25.5904 28.3008
rfemur -18.1575 -12.1148 12.6031
rtibia 39.7427
rfoot 11.6573 7.87155
rtoes -12.1935
lfemur -19.6349 10.8317 -19.2539
ltibia 40.0629
lfoot 17.8607 -4.42409
ltoes -12.2742
47
root 4.60763 24.0596 20.7609 5.00457 -3.53638 3.05178
lowerback -0.278572 0.810591 -0.712895
upperback 4.32432 1.12891 -0.710939
thorax 4.61306 0.548682 -0.286159
lowerneck 1.20926 -2.50473 -0.777957
upperneck 12.0989 -3.36705 0.242295
head 3.72347 -1.68657 0.118311
rclavicle -7.35503e-015 3.77691e-015
rhumerus -26.3894 -18.318 -51.9321
rradius 130.496
rwrist -208.834
rhand 1.145e-013 -2.22639e-013
rfingers 7.12502
rthumb 25.5904 -28.3008
lclavicle -7.35503e-015 3.77691e-015
lhumerus -21.0537 -20.3501 57.9151
lradius 120.451
lwrist -2.16929
lhand 1.59028e-014 -3.24417e-013
lfingers 7.12502
lthumb 25.5904 28.3008
rfemur -18.7252 -12.1067 12.5742
rtibia 39.428
rfoot 10.7793 8.04326
rtoes -12.0616
lfemur -20.2448 10.9673 -19.4617
ltibia 39.8983
lfoot 17.1426 -4.55832
ltoes -13.4965
48
root 4.59382 24.0463 20.8685 4.9342 -3.75491 3.0725
lowerback 0.295726 0.843269 -0.756851
upperback 4.4454 1.16759 -0.72987
thorax 4.41272 0.567173 -0.287566
lowerneck 1.07621 -2.44566 -0.954683
upperneck 12.0937 -3.30512 0.463583
head 3.75504 -1.65497 0.221374
rclavicle 9.49197e-015 1.25234e-014
rhumerus -25.5773 -16.8847 -53.7915
rradius 128.908
rwrist -208.716
rhand 4.6118e-013 -2.41722e-013
rfingers 7.12502
rthumb 25.5904 -28.3008
lclavicle 9.49197e-015 1.25234e-014
lhumerus -20.7611 -20.8196 58.8612
lradius 119.194
lwrist -1.74578
lhand 3.91208e-013 -9.24746e-013
lfingers 7.12502
lthumb 25.5904 28.3008
rfemur -19.297 -12.0817 12.5933
rtibia 39.1041
rfoot 10.0194 8.1028
rtoes -11.8395
lfemur -20.8634 11.1143 -19.6043
ltibia 39.7438
lfoot 16.4924 -4.82932
ltoes -14.2619
49
root 4.58004 24.0193 20.9798 4.88862 -3.97594 3.08841
lowerback 0.815131 0.87078 -0.797919
upperback 4.56071 1.19912 -0.74232
thorax 4.23785 0.582008 -0.283864
lowerneck 1.26771 -2.38579 -1.10401
upperneck 11.6771 -3.23814 0.645582
head 3.57803 -1.62232 0.314066
rclavicle -9.39258e-015 -1.98785e-016
rhumerus -24.8881 -15.5866 -55.5723
rradius 127.398
rwrist -208.533
rhand -1.145e-013 -2.3218e-013
rfingers 7.12502
rthumb 25.5904 -28.3008
lclavicle -9.39258e-015 -1.98785e-016
lhumerus -20.5897 -21.2188 59.8882
lradius 118.001
lwrist -1.69095
lhand -3.29187e-013 5.69319e-013
lfingers 7.12502
lthumb 25.5904 28.3008
rfemur -19.8911 -12.0875 12.6212
rtibia 38.7877
rfoot 9.30766 8.26615
rtoes -11.7261
lfemur -21.4912 11.1512 -19.7258
ltibia 39.5918
lfoot 15.8505 -4.97084
ltoes -14.8803
50
root 4.56591 23.9802 21.0928 4.86631 -4.16103 3.06299
lowerback 1.28541 0.887624 -0.796625
upperback 4.68613 1.21586 -0.743989
thorax 4.10234 0.590695 -0.292623
lowerneck 1.55558 -2.33981 -1.22079
upperneck 11.1259 -3.18741 0.800346
head 3.33648 -1.59776 0.392766
rclavicle 8.94531e-016 -8.15017e-015
rhumerus -24.2591 -14.3421 -57.3198
rradius 125.884
rwrist -208.22
rhand -3.81667e-013 2.8943e-013
rfingers 7.12502
rthumb 25.5904 -28.3008
lclavicle 8.94531e-016 -8.15017e-015
lhumerus -20.4314 -21.5088 60.9536
lradius 116.756
lwrist -1.96794
lhand -3.29187e-013 9.15602e-013
lfingers 7.12502
lthumb 25.5904 28.3008
rfemur -20.5193 -12.1131 12.6997
rtibia 38.5194
rfoot 8.58612 8.50279
rtoes -12.1196
lfemur -22.1195 11.1708 -19.7949
ltibia 39.4222
lfoot 15.2505 -5.21821
ltoes -16.134
51
root 4.55266 23.9286 21.2073 4.90352 -4.35912 3.0401
lowerback 1.63592 0.902621 -0.784753
upperback 4.85686 1.23281 -0.763824
thorax 4.08284 0.599821 -0.323829
lowerneck 1.64514 -2.30512 -1.23476
upperneck 10.6529 -3.14215 0.848229
head 3.1569 -1.57487 0.415335
rclavicle 6.85807e-015 -2.28602e-014
rhumerus -23.6484 -13.1354 -59.0849
rradius 124.339
rwrist -207.52
rhand 4.05521e-013 -8.26944e-014
rfingers 7.12502
rthumb 25.5904 -28.3008
lclavicle 6.85807e-015 -2.28602e-014
lhumerus -20.1979 -21.6779 62.0085
lradius 115.567
lwrist -2.17217
lhand -2.40927e-013 -3.01358e-013
lfingers 7.12502
lthumb 25.5904 28.3008
rfemur -21.2321 -12.0898 12.7795
rtibia 38.3182
rfoot 7.92413 8.71063
rtoes -12.3174
lfemur -22.7974 11.1775 -19.8662
ltibia 39.2183
lfoot 14.7831 -5.48119
ltoes -17.245
52
root 4.53839 23.8618 21.3211 4.9764 -4.53243 2.97635
lowerback 1.96368 0.906731 -0.755105
upperback 5.02458 1.23429 -0.74853
thorax 4.07283 0.601123 -0.328805
lowerneck 1.67269 -2.29427 -1.25532
upperneck 10.2078 -3.12008 0.800064
head 2.99823 -1.56646 0.406429
rclavicle 2.41026e-014 -1.59028e-015
rhumerus -23.12 -11.9257 -60.7962
rradius 122.771
rwrist -206.464
rhand -8.77833e-013 1.31357e-012
rfingers 7.12502
rthumb 25.5904 -28.3008
lclavicle 2.41026e-014 -1.59028e-015
lhumerus -20.0576 -21.7678 63.1258
lradius 114.314
lwrist -2.7375
lhand 2.40132e-013 1.26586e-012
lfingers 7.12502
lthumb 25.5904 28.3008
rfemur -21.9921 -12.0375 12.9111
rtibia 38.2045
rfoot 7.29937 8.94141
rtoes -12.3637
lfemur -23.4816 11.1097 -19.8768
ltibia 38.9803
lfoot 14.429 -5.63698
ltoes -17.9932
53
root 4.5243 23.7803 21.4367 5.05188 -4.70792 2.93432
lowerback 2.22839 0.921531 -0.709934
upperback 5.23291 1.2529 -0.779724
thorax 4.14261 0.612385 -0.388736
lowerneck 1.5911 -2.31532 -1.15794
upperneck 9.82987 -3.13703 0.692784
head 2.88043 -1.57442 0.356055
rclavicle -2.94698e-014 -3.97569e-016
rhumerus -22.647 -10.8137 -62.5114
rradius 121.202
rwrist -205.243
rhand 1.65389e-013 -8.81014e-013
rfingers 7.12502
rthumb 25.5904 -28.3008
lclavicle -2.94698e-014 -3.97569e-016
lhumerus -19.9596 -22.0245 64.2674
lradius 112.864
lwrist -3.22839
lhand -4.71517e-013 -1.44318e-013
lfingers 7.12502
lthumb 25.5904 28.3008
rfemur -22.7521 -11.8349 12.9892
rtibia 38.169
rfoot 6.71621 9.02109
rtoes -11.8721
lfemur -24.1394 10.9961 -19.8971
ltibia 38.7242
lfoot 14.1491 -5.79434
ltoes -18.8228
54
root 4.51003 23.6875 21.5517 5.15016 -4.8822 2.87126
lowerback 2.51015 0.937002 -0.645423
upperback 5.40587 1.27183 -0.809161
thorax 4.16645 0.624807 -0.458361
lowerneck 1.54594 -2.33381 -0.975306
upperneck 9.45607 -3.1462 0.50405
head 2.75469 -1.57809 0.266137
rclavicle 1.73937e-015 -3.97569e-015
rhumerus -22.3198 -9.63549 -64.2028
rradius 119.549
rwrist -203.709
rhand -4.35736e-013 1.87653e-013
rfingers 7.12502
rthumb 25.5904 -28.3008
lclavicle 1.73937e-015 -3.97569e-015
lhumerus -19.9627 -22.2914 65.4025
lradius 111.463
lwrist -3.60048
lhand -5.62958e-013 1.03805e-012
lfingers 7.12502
lthumb 25.5904 28.3008
rfemur -23.5495 -11.5967 13.0798
rtibia 38.2084
rfoot 6.24436 9.12902
rtoes -10.8693
lfemur -24.8013 10.8794 -19.8869
ltibia 38.4559
lfoot 13.9217 -5.93845
ltoes -19.5924
55
root 4.49619 23.5818 21.6671 5.25173 -5.065 2.76224
lowerback 2.78562 0.946331 -0.542171
upperback 5.57678 1.28208 -0.815035
thorax 4.19222 0.634034 -0.525457
lowerneck 1.56103 -2.33139 -0.864762
upperneck 9.03905 -3.13259 0.377186
head 2.60688 -1.57129 0.210231
rclavicle 1.98288e-014 -2.54444e-014
rhumerus -22.0919 -8.46561 -65.7175
rradius 117.886
rwrist -202.403
rhand -4.58e-013 4.32555e-013
rfingers 7.12502
rthumb 25.5904 -28.3008
lclavicle 1.98288e-014 -2.54444e-014
lhumerus -20.0594 -22.5011 66.5321
lradius 110.109
lwrist -3.90824
lhand -8.62725e-013 1.98785e-012
lfingers 7.12502
lthumb 25.5904 28.3008
rfemur -24.3602 -11.3086 13.2091
rtibia 38.3016
rfoot 5.94083 9.15684
rtoes -9.52376
lfemur -25.4499 10.7645 -19.8099
ltibia 38.2027
lfoot 13.7027 -6.0359
ltoes -20.3053
56
root 4.48141 23.4683 21.7841 5.38901 -5.22764 2.6792
lowerback 3.04889 0.960112 -0.459771
upperback 5.68312 1.29896 -0.844722
thorax 4.15769 0.646507 -0.605795
lowerneck 1.71413 -2.32133 -0.814272
upperneck 8.58087 -3.12207 0.426366
head 2.42634 -1.56356 0.222472
rclavicle -1.37161e-014 -2.5842e-015
rhumerus -22.1298 -7.38982 -67.2563
rradius 116.387
rwrist -201.206
rhand 1.81928e-012 -2.38224e-012
rfingers 7.12502
rthumb 25.5904 -28.3008
lclavicle -1.37161e-014 -2.5842e-015
lhumerus -20.2723 -22.8325 67.6101
lradius 108.714
lwrist -3.9434
lhand 7.49915e-014 -2.01473e-012
lfingers 7.12502
lthumb 25.5904 28.3008
rfemur -25.2062 -11.0186 13.3092
rtibia 38.429
rfoot 5.7325 9.1539
rtoes -8.42551
lfemur -26.1165 10.5839 -19.7489
ltibia 37.9762
lfoot 13.4327 -6.12121
ltoes -21.2422
